<svg id="Layer_1" data-name="Layer 1" xmlns="http://www.w3.org/2000/svg" viewBox="0 0 1216 426.89"><defs><style>.cls-1{fill:#C7273F;}.cls-2{fill:#282828;}</style></defs><rect class="cls-1" y="294.89" width="557" height="9"/><rect class="cls-1" x="751" y="292.89" width="465" height="11"/><path class="cls-1" d="M796.34,20.7a8,8,0,1,1,11.78,10.86l-65.58,71-.11.14c-8,9.7-13.52,18.67-16,26.87-2.17,7.25-1.86,13.84,1.36,19.58a8.07,8.07,0,0,1-1.12,9.35h0l-31.14,33.7c-3-3.32-5.46-6-7.08-7.77a29.46,29.46,0,0,0-2.45-2.84l-.07.07c-.42-.46-.87-.88-1.33-1.3l26.62-28.83c-3.11-8.33-3.08-17.2-.21-26.62,3.09-10.23,9.64-21.12,19.06-32.47a8.35,8.35,0,0,1,.63-.81l65.54-71,.07.07ZM655.49,210.81a8,8,0,1,1,11.94-10.68c33,36.92,134.87,146.18,163.11,187,37.23,52.72-20.43,69.32-39.55,50.13-47.79-46.21-149.24-164-193.83-214-16,6.79-31.63,7.84-47.29,3.36-16.85-4.8-33.35-16-50.1-33.31l-.21-.21Q480.44,173,469.61,153.29,458.53,133,456.09,113.11a91.29,91.29,0,0,1,3.47-39.41,74.11,74.11,0,0,1,23.05-34.33,72.91,72.91,0,0,1,38.08-16.18,90.26,90.26,0,0,1,38.78,4.23c18.81,6.13,40.74,21.37,58.92,40.92,13.41,14.4,24.9,31.25,31.74,48.59,7.11,18.07,9.28,36.78,3.57,54.3-3.36,10.37-9.46,20.1-18.92,28.9a8,8,0,0,1-10.89-11.74,52.24,52.24,0,0,0,14.57-22.17c4.41-13.56,2.56-28.59-3.26-43.37-6.09-15.49-16.43-30.62-28.55-43.62C590.26,61.65,570.82,48,554.42,42.66a74.31,74.31,0,0,0-31.84-3.5,56.84,56.84,0,0,0-29.81,12.61,58.69,58.69,0,0,0-18.08,27,75.43,75.43,0,0,0-2.77,32.44Q474,128,483.55,145.58c6.69,12,15.87,24.17,27.68,36.61l.07.11c14.78,15.23,29,25,43,29,13.27,3.78,26.79,2.31,40.91-4.73a8,8,0,0,1,9.95,1.64C648.69,257,754.52,379.63,801.39,425.06c20.35,8.3,31.63-1.93,21.89-20-15.16-28.16-145.48-169.2-167.79-194.28Zm-42.25,70.45L511.09,391.78c-.21.21-.39.42-.63.63C495.53,408.53,522,432,538.34,416.3l99.21-107.37L648.2,321,549.76,427.55h0a7.69,7.69,0,0,1-.7.7c-5.88,4.94-11.8,8.16-17.79,9.49a27.26,27.26,0,0,1-18-2,8.53,8.53,0,0,1-2.7-1.61L496.41,421.1h0c-.21-.21-.42-.38-.63-.63-5.47-6.3-8.06-13-7.36-20.14.67-6.73,4.24-13.28,11-19.58L602.55,269.14l10.69,12.12Zm107-61.87,6.06-6.55a8,8,0,0,1,11.77,10.86l-7,7.57-10.83-11.88Zm101-175.26A8,8,0,0,1,833,55l-57.48,62.25a8,8,0,1,1-11.77-10.86l57.48-62.25Zm24.87,23A8,8,0,1,1,857.89,78l-57.45,62.21a8,8,0,1,1-11.77-10.86l57.45-62.21Zm25.79,23.93a8,8,0,0,1,11.77,10.85l-65.58,71c-.25.25-.49.46-.74.7-14.92,14.37-29.18,22.67-42.8,25-14.79,2.55-28.34-1.65-40.78-12.51a8,8,0,0,1,10.51-12.05c8.58,7.5,17.76,10.44,27.46,8.72q15.66-2.69,34.47-20.77l.07-.07L871.84,91l.07,0Z" transform="translate(-11 -18.11)"/><path class="cls-2" d="M11.16,301V197H26.4V301Zm0,0V287.08H80V301Z" transform="translate(-11 -18.11)"/><path class="cls-2" d="M131.28,302.46q-16.11,0-25-10.54T97.3,262.18q0-19.26,8.93-29.77t25-10.51q16.18,0,25.09,10.51t8.89,29.77q0,19.19-8.89,29.74T131.28,302.46Zm0-13.91a15,15,0,0,0,13.22-6.89q4.65-6.87,4.65-19.48t-4.65-19.52a16.18,16.18,0,0,0-26.44,0q-4.65,6.85-4.65,19.52t4.65,19.48A15,15,0,0,0,131.28,288.55Z" transform="translate(-11 -18.11)"/><path class="cls-2" d="M211.55,302.46q-12.23,0-18.93-7.28t-6.7-20.55V223.36h15.53v51.27q0,6.67,3.8,10.29t10.7,3.63q8.49,0,12.82-5.38t4.32-18.06L237,286.06h-5.12q-1.84,7.9-7.18,12.16A20.55,20.55,0,0,1,211.55,302.46ZM233.09,279V223.36h15.52v51.27Zm1.32,22.7-1.32-18.6V269.51h15.52v17.43l10.7,1.61V301Z" transform="translate(-11 -18.11)"/><path class="cls-2" d="M275.42,301V223.36h14.06L291,239.77V301Zm47.75,0V250.46q0-7-3.66-10.84t-10.25-3.81q-18.31,0-18.31,21.54l-4.54-19.92h6q.66-7.85,5.72-11.69t14.79-3.84q12.3,0,19,7.47t6.74,21.09V301Z" transform="translate(-11 -18.11)"/><path class="cls-2" d="M383.53,302.46q-12.16,0-18.83-5.85T358,280.05q0-12.3,9.19-18.89t26-6.6a82.24,82.24,0,0,1,12.42.85,44.94,44.94,0,0,1,9.7,2.52l-3.22,10.55a53.45,53.45,0,0,0-9.59-1.28q-4.69-.18-9.6-.18-20.22,0-20.21,12.3a9.53,9.53,0,0,0,3.48,7.91Q379.64,290,386,290a26.48,26.48,0,0,0,12.12-2.49,18,18,0,0,0,7.29-6.37,14.93,14.93,0,0,0,2.41-8v-8.5l4.54,19.92h-6.15l2.49-2.34a19.34,19.34,0,0,1-3.11,11.24,18.64,18.64,0,0,1-8.75,6.74A36.13,36.13,0,0,1,383.53,302.46Zm27.39-.73-1-23-2.05-6.44V252.22q0-7.75-5.45-11.39t-16.23-3.92l-18.6-.51L369,222.63l15.68.22q19.26.3,28.6,8.31t9.34,23.4v32.38l13.18,1.61V301Z" transform="translate(-11 -18.11)"/><path class="cls-2" d="M476.84,302.46q-8.79,0-15-.51a83.18,83.18,0,0,1-11.47-1.68l1.76-14.06q7.69,1.17,13.59,1.75t11.17.59q11.79,0,17.1-2.31t5.31-7.36a6.78,6.78,0,0,0-1.87-5.24,13.12,13.12,0,0,0-5.75-2.67l-17.87-4.54q-11.5-2.93-16.88-7.25t-5.38-13.11q0-12.75,9.77-18.46t31.53-5.71c3.76,0,7.27.11,10.51.33s6.58.6,10,1.13l-1.61,13.48c-3.95-.39-7.45-.66-10.47-.81s-6-.22-8.87-.22q-13,0-18.89,2.24t-5.86,7.29a5.29,5.29,0,0,0,2.42,4.87,27,27,0,0,0,7.39,2.74l14.36,3.52q12.23,2.92,17.91,7.84t5.67,14.28q0,12.53-9.15,18.2T476.84,302.46Z" transform="translate(-11 -18.11)"/><path class="cls-2" d="M795.59,237V223.36H865.9V237Zm19.48,27.39V199.93H830.6v64.45Zm33.4,38.08q-17.65,0-25.53-7.32t-7.87-23.44V258.52H830.6V271q0,9.22,4.5,13.4t14.83,4.18q3.66,0,7.77-.4c2.73-.27,5.86-.63,9.37-1.07l1.76,13.63q-5.13.87-10,1.32T848.47,302.46Z" transform="translate(-11 -18.11)"/><path class="cls-2" d="M914.68,302.46q-12.24,0-18.93-7.28T889,274.63V223.36h15.53v51.27q0,6.67,3.81,10.29t10.69,3.63q8.5,0,12.82-5.38t4.32-18.06l4,20.95H935q-1.83,7.9-7.18,12.16A20.53,20.53,0,0,1,914.68,302.46ZM936.21,279V223.36h15.53v51.27Zm1.32,22.7-1.32-18.6V269.51h15.53v17.43l10.69,1.61V301Z" transform="translate(-11 -18.11)"/><path class="cls-2" d="M971.37,237V223.36h70.31V237Zm19.48,27.39V199.93h15.53v64.45Zm33.4,38.08q-17.65,0-25.53-7.32t-7.87-23.44V258.52h15.53V271q0,9.22,4.5,13.4t14.83,4.18c2.45,0,5-.13,7.77-.4s5.86-.63,9.37-1.07l1.76,13.63q-5.13.87-10,1.32C1031.37,302.32,1027.91,302.46,1024.25,302.46Z" transform="translate(-11 -18.11)"/><path class="cls-2" d="M1065.85,301V191.14h15.53V301Zm11-29.44V257.64h8.79q9.66,0,15.89-3.33a22.83,22.83,0,0,0,9.78-10.88q3.56-7.55,5.23-20.07h16.12q-3.08,24.25-13.81,36.22t-29.55,12Zm41.6,29.44-22.12-37.79,14.65-6,26.66,43.8Z" transform="translate(-11 -18.11)"/><path class="cls-2" d="M1174.54,302.46q-12.15,0-18.82-5.85t-6.67-16.56q0-12.3,9.2-18.89t26-6.6a82,82,0,0,1,12.41.85,45,45,0,0,1,9.71,2.52l-3.22,10.55a53.56,53.56,0,0,0-9.6-1.28q-4.68-.18-9.59-.18-20.22,0-20.22,12.3a9.53,9.53,0,0,0,3.48,7.91q3.48,2.79,9.85,2.78a26.42,26.42,0,0,0,12.12-2.49,17.85,17.85,0,0,0,7.29-6.37,14.94,14.94,0,0,0,2.42-8v-8.5l4.54,19.92h-6.15l2.49-2.34a19.27,19.27,0,0,1-3.12,11.24,18.6,18.6,0,0,1-8.75,6.74A36.09,36.09,0,0,1,1174.54,302.46Zm27.39-.73-1-23-2.05-6.44V252.22q0-7.75-5.46-11.39t-16.22-3.92l-18.6-.51,1.46-13.77,15.67.22q19.27.3,28.61,8.31t9.33,23.4v32.38l13.19,1.61V301Z" transform="translate(-11 -18.11)"/></svg>